<svg viewBox="0 0 400 160" xmlns="http://www.w3.org/2000/svg">
  <!-- Main key shape background -->
  <path d="M10 40 L60 40 L60 20 L380 20 L400 40 L400 120 L380 140 L60 140 L60 120 L10 120 Z" 
        fill="#333333" stroke="#ffffff" stroke-width="3"/>
  
  <!-- Inner border -->
  <path d="M15 45 L55 45 L55 25 L375 25 L395 45 L395 115 L375 135 L55 135 L55 115 L15 115 Z" 
        fill="#333333" stroke="#ffffff" stroke-width="2"/>
  
  <!-- Pop-A-Lock text -->
  <text x="200" y="80" text-anchor="middle" font-family="Arial, sans-serif" font-size="32" font-weight="bold" fill="#ffffff" stroke="#ff6600" stroke-width="1">
    Pop-A-Lock
  </text>
  
  <!-- LOCKSMITH text -->
  <text x="200" y="105" text-anchor="middle" font-family="Arial, sans-serif" font-size="14" font-weight="bold" fill="#000000">
    LOCKSMITH
  </text>
  
  <!-- AUTO. HOME. BUSINESS. text -->
  <text x="200" y="125" text-anchor="middle" font-family="Arial, sans-serif" font-size="10" font-weight="bold" fill="#ff6600">
    AUTO. HOME. BUSINESS.
  </text>
  
  <!-- Key teeth on left side -->
  <rect x="10" y="55" width="8" height="8" fill="#333333"/>
  <rect x="10" y="70" width="12" height="8" fill="#333333"/>
  <rect x="10" y="85" width="6" height="8" fill="#333333"/>
  <rect x="10" y="100" width="10" height="8" fill="#333333"/>
</svg>